<?xml version="1.0" standalone="no"?>
<!DOCTYPE svg PUBLIC "-//W3C//DTD SVG 20010904//EN"
 "http://www.w3.org/TR/2001/REC-SVG-20010904/DTD/svg10.dtd">
<svg version="1.0" xmlns="http://www.w3.org/2000/svg"
 width="700.000000pt" height="700.000000pt" viewBox="0 0 700.000000 700.000000"
 preserveAspectRatio="xMidYMid meet">
<metadata>
Created by potrace 1.14, written by Peter Selinger 2001-2017
</metadata>
<g transform="translate(0.000000,700.000000) scale(0.100000,-0.100000)"
fill="#000000" stroke="none">
<path d="M1775 4984 c-146 -18 -196 -29 -325 -76 -546 -197 -1019 -767 -1263
-1523 -50 -153 -107 -376 -122 -475 -6 -43 -18 -117 -21 -135 -6 -29 -23 -170
-29 -240 -11 -121 -15 -349 -6 -354 7 -5 3741 -6 3812 -2 14 1 16 14 13 89 -4
116 -14 284 -18 308 -2 10 -7 52 -10 93 -4 41 -9 77 -10 80 -2 3 -7 29 -10 56
-13 93 -18 120 -46 245 -41 178 -83 332 -100 362 -6 10 -10 23 -10 30 0 22
-111 289 -167 401 -85 170 -200 353 -297 472 -23 27 -50 61 -61 74 -55 68
-225 227 -313 293 -314 237 -671 343 -1017 302z"/>
<path d="M4140 4992 c-14 -2 -16 -150 -15 -1403 0 -1105 3 -1401 12 -1407 7
-5 37 -7 65 -6 322 14 366 16 489 29 150 15 344 40 379 50 8 2 31 6 50 9 153
23 426 92 631 160 293 97 597 251 798 404 194 148 349 343 407 510 36 106 43
157 39 277 -11 297 -204 575 -568 813 -209 137 -577 300 -827 367 -109 29
-333 84 -360 89 -19 3 -71 13 -115 21 -44 9 -129 22 -190 31 -60 8 -123 16
-140 19 -16 2 -59 6 -95 10 -36 3 -83 8 -105 10 -22 2 -114 7 -205 11 -91 3
-181 7 -200 8 -19 1 -42 0 -50 -2z"/>
</g>
</svg>
